<svg xmlns="http://www.w3.org/2000/svg" viewBox="0 0 494 494">
  <g data-name="panda" class="panda">
    <circle cx="247" cy="247" r="235" fill="#fff" stroke="#333537" stroke-miterlimit="10" stroke-width="24"/>
    <path fill="#fff" stroke="#333537" stroke-miterlimit="10" stroke-width="16" d="M67 391c25-25 63-63 178-63s153 38 182 63"/>
    <g data-name="head" class="head">
      <ellipse data-name="head-shadow" cx="274" cy="382" fill="#ccc" rx="108" ry="59"/>
      <g data-name="ears" class="ears" fill="#333537">
        <path d="M73 169c0 27 10 33 61 43 27 6 60-39 55-57-5-14-23-48-58-46-27 1-58 24-58 60zM424 167c0 28-10 33-61 44-27 6-60-39-55-57 5-14 23-48 58-46 27 1 58 24 58 59z"/>
      </g>
      <path fill="#fff" d="M390 274c0 79-38 142-142 142s-142-63-142-142 64-135 142-135 142 57 142 135z"/>
      <path data-name="face-shadow" class="face-shadow" fill="#ccc" d="M369 201c-1-16 8 4 13 26 33 133-50 189-134 189-78 0-111-46-119-55-10-9 60-20 63 10 2 25 75 26 83 24 26-4 29-22 30-26 23-76 71-46 64-168z"/>
      <path data-name="nose" class="nose" fill="#333537" stroke="#fff" stroke-miterlimit="10" d="M282 352c1 10-17 23-35 23-16-1-34-13-32-23 1-9 20-2 33-2 14 0 32-7 34 2z"/>
      <path data-name="upper-mouth" class="upper-mouth" fill="none" stroke="#333537" stroke-miterlimit="10" stroke-width="16" d="M248 361v29"/>
      <g data-name="mouth" class="mouth" fill="none" stroke="#333537" stroke-linecap="round" stroke-miterlimit="10" stroke-width="16">
        <path d="M247 391c22 7 50 5 58-20M250 391c-22 7-50 5-58-20"/>
      </g>
      <path fill="#333537" d="M358 288c8 11-29 39-44 20-17-23-22-17-36-37-22-34 33-56 45-35 14 23 17 28 35 52zM139 288c-8 11 29 39 43 20 18-23 23-17 36-37 23-34-32-56-44-36-14 24-17 29-35 53z"/>
      <g data-name="eyes" class="eyes" fill="#fff" stroke="#231f20" stroke-miterlimit="10" stroke-width="2">
        <circle cx="197" cy="256" r="9"/>
        <circle cx="300" cy="256" r="9"/>
      </g>
      <path fill="none" stroke="#333537" stroke-miterlimit="10" stroke-width="16" d="M391 274c0 79-39 142-142 142s-142-63-142-142 63-135 142-135 142 57 142 135z"/>
    </g>
    <path fill="#333537" d="M397 430c0 1-65 57-149 57S95 431 95 430s70 16 153 16 149-18 149-16z"/>
  </g>
</svg>