<svg viewBox="0 0 92.26 134.53"><title>touchIcon</title><circle cx="36.35" cy="20.22" r="18.22" fill="none" stroke="#DD5F5B" stroke-miterlimit="10" stroke-width="8"/><path d="M4.88,95.1c-9-9,5.24-21,14.75-11.46,2.93,2.93,6.51,6.77,6.51,6.77A1.69,1.69,0,0,0,29,89.23V20.38c0-8.89,15.34-10.14,15.34,0v36.5c0-12.14,17.66-12.26,17.66,0v3c0-8,15.84-8.51,15.84,0v5.83c0-7.53,12.16-7.15,12.16,0,0,0,.53,19,0,25.33-.44,5.31-1.79,16-3.5,21-1.38,4.1-4.71,10.3-7.66,13.45-2.11,2.25-7.73,5.26-10.67,6.17-2.56.79-8,1-10.67.83a66.4,66.4,0,0,1-10.83-1.83c-2.71-.74-8.12-2.51-10.5-4-4.8-3-12.63-11.37-16.5-15.5Z" fill="#fff" stroke="#333537" stroke-miterlimit="10" stroke-width="6"/></svg>