<svg xmlns="http://www.w3.org/2000/svg" viewBox="0 0 91.26 112.68"><title>touchIcon2</title><circle cx="35.85" cy="21.22" r="18.22" fill="none" stroke="#de5e5b" stroke-miterlimit="10" stroke-width="7"/><path d="M4.38,80.76c-9-7.33,5.24-17,14.75-9.31,2.93,2.38,6.51,5.5,6.51,5.5,1.05.88,2.89.27,2.89-1V20c0-7.22,15.34-8.23,15.34,0V49.7c0-9.86,17.66-10,17.66,0v2.44c0-6.46,15.84-6.92,15.84,0v4.74c0-6.12,12.16-5.81,12.16,0,0,0,.53,15.45,0,20.58-.44,4.31-1.79,13-3.5,17.07a34.69,34.69,0,0,1-7.66,10.93c-2.11,1.83-7.73,4.27-10.67,5a50.58,50.58,0,0,1-10.67.68,80.13,80.13,0,0,1-10.83-1.49c-2.71-.6-8.12-2-10.5-3.25-4.8-2.44-12.63-9.24-16.5-12.6Z" fill="#fff" stroke="#333537" stroke-miterlimit="10" stroke-width="5"/></svg>